<?xml version="1.0" encoding="utf-8"?>
<!-- Generator: Adobe Illustrator 24.3.0, SVG Export Plug-In . SVG Version: 6.00 Build 0)  -->
<svg version="1.1" id="Layer_1" xmlns="http://www.w3.org/2000/svg" xmlns:xlink="http://www.w3.org/1999/xlink" x="0px" y="0px"
	 viewBox="0 0 161.54 55.5" style="enable-background:new 0 0 161.54 55.5;" xml:space="preserve">
<style type="text/css">
	.st0{fill:#FFFFFF;}
	.st1{fill:#F7800E;}
</style>
<rect x="0" width="161.54" height="55.5"/>
<g>
	<g>
		<path class="st0" d="M41.21,27.63c7.93,0,12.13,3.32,12.13,9.71c0,9.26-4.97,15.97-17.98,15.97H1.31l8.91-10.99h27.71
			c3.06,0,4.37-1.15,4.37-3.64c0-1.72-1.15-2.55-3.44-2.55H18.91c-8.31,0-12.02-4.09-12.02-10.29c0-8.69,5.08-15.27,17.87-15.27
			h31.76l-8.96,11.12H22.19c-3.06,0-4.37,0.96-4.37,3.51c0,1.73,1.15,2.43,3.5,2.43H41.21z"/>
	</g>
	<g>
		<path class="st1" d="M57.59,46.46c-0.91-2.68-1.29-3.99-1.6-5.24c-0.67,1.25-1.45,2.53-3.17,5.21l-3.14,4.95
			c-0.69,1.12-1.6,1.85-2.81,1.85c-1.16,0-2.1-0.78-2.23-2.4l-1.45-15.32h4.59l0.49,6.07c0.13,1.96,0.25,3.39,0.29,4.8
			c0.67-1.2,1.4-2.55,2.81-4.82l2.68-4.38c1.05-1.69,1.81-1.96,2.92-1.96c1.14,0,1.85,0.24,2.36,1.96l1.34,4.4
			c0.71,2.4,1.07,3.62,1.38,4.8c0.42-1.38,0.96-2.87,1.72-4.8l2.34-6.07h4.53l-6.2,15.32c-0.65,1.62-1.76,2.4-2.94,2.4
			s-1.87-0.7-2.25-1.85L57.59,46.46z"/>
		<path class="st1" d="M90.9,52.95h-6.17l-2.63-4.61H75l-0.69,4.61H69.7l1.34-8.91h12.97c1.54,0,2.88-0.86,2.88-2.27
			c0-1.15-0.85-1.72-2.27-1.72H71.64l3.7-4.54h9.59c3.12,0,6.82,1.12,6.82,5.29c0,3.15-1.94,5.81-4.82,6.46
			c0.42,0.44,0.89,1.07,1.72,2.29L90.9,52.95z"/>
		<path class="st1" d="M98.86,52.95l3.48-4.48h3.72c0.91,0,1.94,0,2.65,0.05c-0.31-0.62-0.78-1.69-1.14-2.53l-1.98-4.61l-8.74,11.57
			h-5.46l11.95-15.77c0.78-1.02,1.83-1.96,3.28-1.96c1.38,0,2.16,0.86,2.65,1.96l6.93,15.77H98.86z"/>
		<path class="st1" d="M130.88,48.49h-7.8l-0.67,4.46h-4.59l1.34-8.91h12.84c1.61,0,2.59-0.96,2.59-2.32c0-1.02-0.69-1.67-1.98-1.67
			h-12.84l3.75-4.54h9.36c4.15,0,6.42,2.27,6.42,5.6C139.28,45.44,136.05,48.49,130.88,48.49z"/>
		<path class="st1" d="M155.3,42.47c3.23,0,4.95,1.35,4.95,3.96c0,3.78-2.03,6.52-7.33,6.52h-13.89l3.63-4.48h11.3
			c1.25,0,1.78-0.47,1.78-1.49c0-0.7-0.47-1.04-1.4-1.04h-8.14c-3.39,0-4.91-1.67-4.91-4.2c0-3.54,2.07-6.23,7.29-6.23h12.95
			l-3.66,4.54h-10.34c-1.25,0-1.78,0.39-1.78,1.43c0,0.7,0.47,0.99,1.43,0.99H155.3z"/>
	</g>
</g>
</svg>
